G04 #@! TF.FileFunction,Copper,L1,Top,Signal*
%FSLAX46Y46*%
G04 Gerber Fmt 4.6, Leading zero omitted, Abs format (unit mm)*
G04 Created by KiCad (PCBNEW 4.0.6) date 07/11/17 19:08:17*
%MOMM*%
%LPD*%
G01*
G04 APERTURE LIST*
%ADD10C,0.100000*%
%ADD11R,1.250000X1.000000*%
%ADD12R,1.700000X1.700000*%
%ADD13O,1.700000X1.700000*%
%ADD14C,5.460000*%
%ADD15R,1.520000X1.520000*%
%ADD16C,1.520000*%
%ADD17R,1.600000X1.600000*%
%ADD18O,1.600000X1.600000*%
%ADD19C,2.000000*%
%ADD20R,1.800000X1.800000*%
%ADD21O,1.800000X1.800000*%
%ADD22R,0.700000X1.300000*%
%ADD23R,1.300000X0.700000*%
%ADD24R,1.600000X0.550000*%
%ADD25R,0.550000X1.600000*%
%ADD26R,1.300000X0.400000*%
%ADD27R,1.000000X1.250000*%
%ADD28C,0.600000*%
%ADD29C,0.300000*%
%ADD30C,1.200000*%
%ADD31C,0.750000*%
G04 APERTURE END LIST*
D10*
D11*
X170053000Y-83217000D03*
X170053000Y-85217000D03*
D12*
X204724000Y-78740000D03*
D13*
X202184000Y-78740000D03*
D14*
X164084000Y-80645000D03*
X136144000Y-80645000D03*
D15*
X155194000Y-79375000D03*
D16*
X155194000Y-81915000D03*
X152654000Y-79375000D03*
X152654000Y-81915000D03*
X150114000Y-79375000D03*
X150114000Y-81915000D03*
X147574000Y-79375000D03*
X147574000Y-81915000D03*
X145034000Y-79375000D03*
X145034000Y-81915000D03*
D17*
X118972340Y-98214246D03*
D18*
X126592340Y-82974246D03*
X118972340Y-95674246D03*
X126592340Y-85514246D03*
X118972340Y-93134246D03*
X126592340Y-88054246D03*
X118972340Y-90594246D03*
X126592340Y-90594246D03*
X118972340Y-88054246D03*
X126592340Y-93134246D03*
X118972340Y-85514246D03*
X126592340Y-95674246D03*
X118972340Y-82974246D03*
X126592340Y-98214246D03*
D19*
X199644000Y-105410000D03*
X202184000Y-105410000D03*
X204724000Y-105410000D03*
X207264000Y-105410000D03*
X197104000Y-105410000D03*
X194564000Y-105410000D03*
X192024000Y-105410000D03*
X189484000Y-105410000D03*
X192024000Y-92710000D03*
X199644000Y-92710000D03*
X189484000Y-92710000D03*
X204724000Y-92710000D03*
X207264000Y-92710000D03*
X197104000Y-92710000D03*
X194564000Y-92710000D03*
X202184000Y-92710000D03*
D12*
X194556478Y-109224382D03*
D13*
X197096478Y-109224382D03*
X199636478Y-109224382D03*
X202176478Y-109224382D03*
D12*
X159258000Y-109347000D03*
D13*
X159258000Y-106807000D03*
D12*
X126372437Y-78942429D03*
D13*
X123832437Y-78942429D03*
X121292437Y-78942429D03*
X118752437Y-78942429D03*
D12*
X154051000Y-109220000D03*
D13*
X154051000Y-106680000D03*
D20*
X199644000Y-83947000D03*
D21*
X202184000Y-83947000D03*
X204724000Y-83947000D03*
D12*
X191643000Y-78613000D03*
D13*
X189103000Y-78613000D03*
D20*
X186563000Y-84074000D03*
D21*
X189103000Y-84074000D03*
X191643000Y-84074000D03*
D22*
X178435000Y-91567000D03*
X176535000Y-91567000D03*
X178435000Y-87249000D03*
X176535000Y-87249000D03*
D23*
X160233664Y-88938208D03*
X160233664Y-90838208D03*
X154432000Y-90932000D03*
X154432000Y-89032000D03*
X165313664Y-88938208D03*
X165313664Y-90838208D03*
X162814000Y-90932000D03*
X162814000Y-89032000D03*
X157480000Y-90927000D03*
X157480000Y-89027000D03*
D24*
X168742664Y-102311208D03*
X168742664Y-101511208D03*
X168742664Y-100711208D03*
X168742664Y-99911208D03*
X168742664Y-99111208D03*
X168742664Y-98311208D03*
X168742664Y-97511208D03*
X168742664Y-96711208D03*
D25*
X167292664Y-95261208D03*
X166492664Y-95261208D03*
X165692664Y-95261208D03*
X164892664Y-95261208D03*
X164092664Y-95261208D03*
X163292664Y-95261208D03*
X162492664Y-95261208D03*
X161692664Y-95261208D03*
D24*
X160242664Y-96711208D03*
X160242664Y-97511208D03*
X160242664Y-98311208D03*
X160242664Y-99111208D03*
X160242664Y-99911208D03*
X160242664Y-100711208D03*
X160242664Y-101511208D03*
X160242664Y-102311208D03*
D25*
X161692664Y-103761208D03*
X162492664Y-103761208D03*
X163292664Y-103761208D03*
X164092664Y-103761208D03*
X164892664Y-103761208D03*
X165692664Y-103761208D03*
X166492664Y-103761208D03*
X167292664Y-103761208D03*
D26*
X172425664Y-97053208D03*
X172425664Y-94653208D03*
X172425664Y-95853208D03*
D27*
X157607000Y-97790000D03*
X155607000Y-97790000D03*
X171593000Y-99060000D03*
X173593000Y-99060000D03*
D11*
X181737000Y-83185000D03*
X181737000Y-85185000D03*
D20*
X178816000Y-79121000D03*
D21*
X176276000Y-79121000D03*
X173736000Y-79121000D03*
D12*
X102000000Y-78000000D03*
D13*
X102000000Y-80540000D03*
X102000000Y-83080000D03*
X102000000Y-85620000D03*
X102000000Y-88160000D03*
X102000000Y-90700000D03*
D12*
X212000000Y-78000000D03*
D13*
X212000000Y-80540000D03*
X212000000Y-83080000D03*
X212000000Y-85620000D03*
X212000000Y-88160000D03*
X212000000Y-90700000D03*
D11*
X119126000Y-106458000D03*
X119126000Y-108458000D03*
D12*
X115189000Y-100711000D03*
D13*
X112649000Y-100711000D03*
X110109000Y-100711000D03*
X107569000Y-100711000D03*
X105029000Y-100711000D03*
X102489000Y-100711000D03*
D12*
X132207000Y-107315000D03*
D13*
X132207000Y-109855000D03*
X129667000Y-107315000D03*
X129667000Y-109855000D03*
X127127000Y-107315000D03*
X127127000Y-109855000D03*
D23*
X110109000Y-97470000D03*
X110109000Y-95570000D03*
X122301000Y-108458000D03*
X122301000Y-106558000D03*
D28*
X168783000Y-108966000D03*
X170053000Y-85217000D03*
X181737000Y-85185000D03*
X170307000Y-100711000D03*
X160242664Y-99911208D03*
X155661664Y-97701208D03*
X172425664Y-95853208D03*
X173409664Y-99098208D03*
X168742664Y-99111208D03*
X150876000Y-102870000D03*
X168783000Y-101472994D03*
X137751728Y-97325272D03*
X137414000Y-103632000D03*
X152654000Y-102235000D03*
X168741338Y-102335050D03*
X136291228Y-95864772D03*
X133731000Y-103505000D03*
X157480000Y-90927000D03*
X146812000Y-102108000D03*
X128524000Y-86741000D03*
X131064000Y-89535000D03*
X163292664Y-103761208D03*
X107696000Y-90043000D03*
X164092664Y-103761208D03*
X164892664Y-103761208D03*
X164846000Y-108712000D03*
X166492664Y-103761208D03*
X165692664Y-103761208D03*
D29*
X159258000Y-109347000D02*
X163322998Y-109347000D01*
X163322998Y-109347000D02*
X164557999Y-108111999D01*
X164557999Y-108111999D02*
X167928999Y-108111999D01*
X167928999Y-108111999D02*
X168783000Y-108966000D01*
X168742664Y-100711208D02*
X170306792Y-100711208D01*
X170306792Y-100711208D02*
X170307000Y-100711000D01*
X126592340Y-93134246D02*
X126592340Y-90594246D01*
X124517094Y-101219000D02*
X148800736Y-101219000D01*
X148800736Y-101219000D02*
X150451736Y-102870000D01*
X118972340Y-95674246D02*
X124517094Y-101219000D01*
X150451736Y-102870000D02*
X150876000Y-102870000D01*
X168742664Y-101511208D02*
X168744786Y-101511208D01*
X168744786Y-101511208D02*
X168783000Y-101472994D01*
X192024000Y-105410000D02*
X190119000Y-107315000D01*
X190119000Y-107315000D02*
X161417000Y-107315000D01*
X161417000Y-107315000D02*
X160782000Y-107950000D01*
X160782000Y-107950000D02*
X159817002Y-107950000D01*
X159817002Y-107950000D02*
X159810001Y-107957001D01*
X159810001Y-107957001D02*
X153169001Y-107957001D01*
X153169001Y-107957001D02*
X152654000Y-107442000D01*
X152654000Y-107442000D02*
X152654000Y-107315000D01*
X152654000Y-107315000D02*
X152400000Y-107061000D01*
X152400000Y-107061000D02*
X152400000Y-103887872D01*
X152400000Y-103887872D02*
X157661664Y-98626208D01*
X157661664Y-98626208D02*
X157661664Y-97701208D01*
X125924919Y-107315000D02*
X125095000Y-106485081D01*
X125095000Y-106485081D02*
X110490000Y-91880081D01*
X122301000Y-106558000D02*
X125022081Y-106558000D01*
X125022081Y-106558000D02*
X125095000Y-106485081D01*
X110109000Y-95570000D02*
X110109000Y-94920000D01*
X110109000Y-94920000D02*
X110490000Y-94539000D01*
X110490000Y-94539000D02*
X110490000Y-91880081D01*
X127392339Y-96474245D02*
X126592340Y-95674246D01*
X156559701Y-96474245D02*
X139490757Y-96474245D01*
X139490757Y-96474245D02*
X138039729Y-97925273D01*
X138039729Y-97925273D02*
X128843367Y-97925273D01*
X128843367Y-97925273D02*
X127392339Y-96474245D01*
X157661664Y-97576208D02*
X156559701Y-96474245D01*
X157661664Y-97701208D02*
X157661664Y-97576208D01*
X111038755Y-89494245D02*
X110490000Y-90043000D01*
X110490000Y-90043000D02*
X109728000Y-90805000D01*
X127127000Y-107315000D02*
X125924919Y-107315000D01*
X110490000Y-91880081D02*
X110490000Y-90043000D01*
X152654000Y-79375000D02*
X151593999Y-78314999D01*
X151593999Y-78314999D02*
X143951587Y-78314999D01*
X143951587Y-78314999D02*
X127392339Y-94874247D01*
X127392339Y-94874247D02*
X126592340Y-95674246D01*
X170561000Y-99029544D02*
X170561000Y-99049544D01*
X170561000Y-99049544D02*
X170609664Y-99098208D01*
X170609664Y-99098208D02*
X171409664Y-99098208D01*
X126592340Y-95674246D02*
X120412339Y-89494245D01*
X120412339Y-89494245D02*
X111038755Y-89494245D01*
X109728000Y-90805000D02*
X103056081Y-90805000D01*
X103056081Y-90805000D02*
X101854000Y-90805000D01*
X101854000Y-90805000D02*
X101854000Y-88265000D01*
X160242664Y-97511208D02*
X161342664Y-97511208D01*
X161342664Y-97511208D02*
X162142664Y-98311208D01*
X162142664Y-98311208D02*
X167642664Y-98311208D01*
X167642664Y-98311208D02*
X168742664Y-98311208D01*
X160242664Y-97511208D02*
X157851664Y-97511208D01*
X157851664Y-97511208D02*
X157661664Y-97701208D01*
X168742664Y-99911208D02*
X169842664Y-99911208D01*
X169842664Y-99911208D02*
X170561000Y-99192872D01*
X170561000Y-99192872D02*
X170561000Y-99029544D01*
X168742664Y-98311208D02*
X169842664Y-98311208D01*
X169842664Y-98311208D02*
X170561000Y-99029544D01*
X126592340Y-98214246D02*
X126592340Y-95674246D01*
X155194000Y-81915000D02*
X160869598Y-81915000D01*
X160869598Y-81915000D02*
X166751000Y-87796402D01*
X166751000Y-87796402D02*
X166751000Y-93266462D01*
X166751000Y-93266462D02*
X165917663Y-94099799D01*
X165917663Y-94099799D02*
X165917663Y-95036209D01*
X165917663Y-95036209D02*
X165692664Y-95261208D01*
X164892664Y-95261208D02*
X164892664Y-91259208D01*
X164892664Y-91259208D02*
X165313664Y-90838208D01*
X163292664Y-95261208D02*
X163292664Y-91410664D01*
X163292664Y-91410664D02*
X162814000Y-90932000D01*
X138051727Y-97025273D02*
X137751728Y-97325272D01*
X157147456Y-94361000D02*
X140716000Y-94361000D01*
X140716000Y-94361000D02*
X138051727Y-97025273D01*
X129667000Y-109855000D02*
X129667000Y-109017002D01*
X129667000Y-109017002D02*
X131056999Y-107627003D01*
X131056999Y-107627003D02*
X131056999Y-106224999D01*
X131056999Y-106224999D02*
X133176997Y-104105001D01*
X133176997Y-104105001D02*
X136940999Y-104105001D01*
X136940999Y-104105001D02*
X137114001Y-103931999D01*
X137114001Y-103931999D02*
X137414000Y-103632000D01*
X159497664Y-96711208D02*
X157147456Y-94361000D01*
X157147456Y-94361000D02*
X154432000Y-91645544D01*
X160242664Y-96711208D02*
X159497664Y-96711208D01*
X154432000Y-91645544D02*
X154432000Y-90932000D01*
X145034000Y-79375000D02*
X143637000Y-80772000D01*
X143637000Y-82086802D02*
X151212198Y-89662000D01*
X143637000Y-80772000D02*
X143637000Y-82086802D01*
X151212198Y-89662000D02*
X153521998Y-89662000D01*
X153541999Y-89682001D02*
X155322001Y-89682001D01*
X153521998Y-89662000D02*
X153541999Y-89682001D01*
X155322001Y-89682001D02*
X155342002Y-89662000D01*
X158370001Y-89677001D02*
X158385002Y-89662000D01*
X156589999Y-89677001D02*
X158370001Y-89677001D01*
X155342002Y-89662000D02*
X156574998Y-89662000D01*
X164317663Y-90895661D02*
X164317663Y-95036209D01*
X156574998Y-89662000D02*
X156589999Y-89677001D01*
X161903998Y-89662000D02*
X161923999Y-89682001D01*
X158385002Y-89662000D02*
X161903998Y-89662000D01*
X163104003Y-89682001D02*
X164317663Y-90895661D01*
X161923999Y-89682001D02*
X163104003Y-89682001D01*
X164317663Y-95036209D02*
X164092664Y-95261208D01*
D30*
X194556478Y-109224382D02*
X194556478Y-105544522D01*
X194556478Y-105544522D02*
X194564000Y-105537000D01*
X197096478Y-109224382D02*
X197096478Y-105544522D01*
X197096478Y-105544522D02*
X197104000Y-105537000D01*
X199636478Y-109224382D02*
X199636478Y-105544522D01*
X199636478Y-105544522D02*
X199644000Y-105537000D01*
D29*
X151187989Y-100768989D02*
X152354001Y-101935001D01*
X126168989Y-100768989D02*
X151187989Y-100768989D01*
X123190000Y-97790000D02*
X126168989Y-100768989D01*
X123190000Y-94811906D02*
X123190000Y-97790000D01*
X152354001Y-101935001D02*
X152654000Y-102235000D01*
X118972340Y-90594246D02*
X123190000Y-94811906D01*
X189484000Y-92710000D02*
X189484000Y-91295787D01*
X208074402Y-90959990D02*
X209014011Y-91899599D01*
X209014011Y-91899599D02*
X209014010Y-93520402D01*
X182499000Y-98933000D02*
X177546000Y-103886000D01*
X189484000Y-91295787D02*
X189819798Y-90959989D01*
X209014010Y-93520402D02*
X203601412Y-98933000D01*
X189819798Y-90959989D02*
X208074402Y-90959990D01*
X177546000Y-103886000D02*
X177426049Y-103886000D01*
X203601412Y-98933000D02*
X182499000Y-98933000D01*
X177426049Y-103886000D02*
X174650776Y-106661273D01*
X174650776Y-106661273D02*
X162856318Y-106661272D01*
X162856318Y-106661272D02*
X160242664Y-104047618D01*
X160242664Y-104047618D02*
X160242664Y-102886208D01*
X160242664Y-102886208D02*
X160242664Y-102311208D01*
X208564001Y-92085999D02*
X208564001Y-93334001D01*
X193324001Y-91409999D02*
X207888001Y-91409999D01*
X161692664Y-104861208D02*
X161692664Y-103761208D01*
X203473002Y-98425000D02*
X182250639Y-98425000D01*
X182250639Y-98425000D02*
X174464376Y-106211263D01*
X192024000Y-92710000D02*
X193324001Y-91409999D01*
X174464376Y-106211263D02*
X163042719Y-106211263D01*
X207888001Y-91409999D02*
X208564001Y-92085999D01*
X208564001Y-93334001D02*
X203473002Y-98425000D01*
X163042719Y-106211263D02*
X161692664Y-104861208D01*
X167867664Y-103761208D02*
X167292664Y-103761208D01*
X174368788Y-103761208D02*
X167867664Y-103761208D01*
X195729044Y-96624956D02*
X181505039Y-96624956D01*
X181505039Y-96624956D02*
X174368788Y-103761208D01*
X199644000Y-92710000D02*
X195729044Y-96624956D01*
X174277976Y-105761252D02*
X163392708Y-105761252D01*
X162492664Y-104861208D02*
X162492664Y-103761208D01*
X163392708Y-105761252D02*
X162492664Y-104861208D01*
X201999011Y-97974989D02*
X182064239Y-97974989D01*
X207264000Y-92710000D02*
X201999011Y-97974989D01*
X182064239Y-97974989D02*
X174277976Y-105761252D01*
D30*
X202176478Y-109224382D02*
X202176478Y-105417522D01*
X202176478Y-105417522D02*
X202184000Y-105410000D01*
D29*
X194564000Y-92710000D02*
X197104000Y-92710000D01*
D31*
X126592340Y-85514246D02*
X128404437Y-83702149D01*
X127388437Y-78942429D02*
X126372437Y-78942429D01*
X128404437Y-79958429D02*
X127388437Y-78942429D01*
X128404437Y-83702149D02*
X128404437Y-79958429D01*
X126592340Y-82210332D02*
X123832437Y-79450429D01*
X118972340Y-85514246D02*
X121292437Y-83194149D01*
X121292437Y-83194149D02*
X121292437Y-78942429D01*
X118972340Y-82974246D02*
X118972340Y-79162332D01*
D29*
X189103000Y-78613000D02*
X189103000Y-84074000D01*
X167292664Y-95261208D02*
X167867664Y-95261208D01*
X171561872Y-91567000D02*
X175885000Y-91567000D01*
X167867664Y-95261208D02*
X171561872Y-91567000D01*
X175885000Y-91567000D02*
X176535000Y-91567000D01*
X166492664Y-95261208D02*
X166492665Y-94161207D01*
X173404872Y-87249000D02*
X175885000Y-87249000D01*
X166492665Y-94161207D02*
X173404872Y-87249000D01*
X175885000Y-87249000D02*
X176535000Y-87249000D01*
X181991000Y-91567000D02*
X186309000Y-91567000D01*
X186309000Y-91567000D02*
X193929000Y-83947000D01*
X193929000Y-83947000D02*
X198444000Y-83947000D01*
X198444000Y-83947000D02*
X199644000Y-83947000D01*
X178435000Y-91567000D02*
X179085000Y-91567000D01*
X179085000Y-91567000D02*
X181991000Y-91567000D01*
X181991000Y-87254000D02*
X184583000Y-87254000D01*
X184583000Y-87254000D02*
X186563000Y-85274000D01*
X186563000Y-85274000D02*
X186563000Y-84074000D01*
X178435000Y-87249000D02*
X181986000Y-87249000D01*
X181986000Y-87249000D02*
X181991000Y-87254000D01*
X165313664Y-88938208D02*
X164363664Y-88938208D01*
X164363664Y-88938208D02*
X158400457Y-82975001D01*
X158400457Y-82975001D02*
X152145199Y-82975001D01*
X152145199Y-82975001D02*
X151174001Y-82003803D01*
X151174001Y-82003803D02*
X151174001Y-80435001D01*
X151174001Y-80435001D02*
X150873999Y-80134999D01*
X150873999Y-80134999D02*
X150114000Y-79375000D01*
X162814000Y-89032000D02*
X161864000Y-89032000D01*
X161864000Y-89032000D02*
X156779000Y-83947000D01*
X156779000Y-83947000D02*
X152146000Y-83947000D01*
X152146000Y-83947000D02*
X150873999Y-82674999D01*
X150873999Y-82674999D02*
X150114000Y-81915000D01*
X148333999Y-80134999D02*
X147574000Y-79375000D01*
X148634001Y-80435001D02*
X148333999Y-80134999D01*
X155392467Y-84397011D02*
X151027209Y-84397011D01*
X159933664Y-88938208D02*
X155392467Y-84397011D01*
X160233664Y-88938208D02*
X159933664Y-88938208D01*
X151027209Y-84397011D02*
X148634001Y-82003803D01*
X148634001Y-82003803D02*
X148634001Y-80435001D01*
X156530000Y-88377000D02*
X154036000Y-88377000D01*
X154036000Y-88377000D02*
X148333999Y-82674999D01*
X157480000Y-89027000D02*
X157180000Y-89027000D01*
X157180000Y-89027000D02*
X156530000Y-88377000D01*
X148333999Y-82674999D02*
X147574000Y-81915000D01*
X154432000Y-89032000D02*
X152151000Y-89032000D01*
X152151000Y-89032000D02*
X145034000Y-81915000D01*
X207264000Y-105410000D02*
X207264000Y-96214998D01*
X207264000Y-96214998D02*
X211113001Y-92365997D01*
X211963000Y-90678000D02*
X211963000Y-85598000D01*
X211113001Y-92365997D02*
X211113001Y-91527999D01*
X211113001Y-91527999D02*
X211963000Y-90678000D01*
X207645000Y-81280000D02*
X204597000Y-81280000D01*
X211963000Y-85598000D02*
X207645000Y-81280000D01*
X180721000Y-78416000D02*
X180016000Y-79121000D01*
X181674001Y-77462999D02*
X180721000Y-78416000D01*
X180721000Y-78416000D02*
X181737000Y-79432000D01*
X181737000Y-79432000D02*
X181737000Y-83185000D01*
X191643000Y-78613000D02*
X190805002Y-78613000D01*
X190805002Y-78613000D02*
X189655001Y-77462999D01*
X189655001Y-77462999D02*
X181674001Y-77462999D01*
X180016000Y-79121000D02*
X178816000Y-79121000D01*
X204724000Y-81280000D02*
X204597000Y-81280000D01*
X204597000Y-81280000D02*
X195460000Y-81280000D01*
X195460000Y-81280000D02*
X195072000Y-81280000D01*
X195072000Y-81280000D02*
X192405000Y-78613000D01*
X192405000Y-78613000D02*
X191643000Y-78613000D01*
X195460000Y-81280000D02*
X194945000Y-81280000D01*
X194945000Y-81280000D02*
X192151000Y-84074000D01*
X192151000Y-84074000D02*
X191643000Y-84074000D01*
X204724000Y-81280000D02*
X204724000Y-78740000D01*
X158722455Y-90276999D02*
X141879001Y-90276999D01*
X136591227Y-95564773D02*
X136291228Y-95864772D01*
X141879001Y-90276999D02*
X136591227Y-95564773D01*
X159283664Y-90838208D02*
X158722455Y-90276999D01*
X160233664Y-90838208D02*
X159283664Y-90838208D01*
X129667000Y-107315000D02*
X129667000Y-106172000D01*
X129667000Y-106172000D02*
X132334000Y-103505000D01*
X132334000Y-103505000D02*
X133731000Y-103505000D01*
X160233664Y-90838208D02*
X160233664Y-91488208D01*
X160233664Y-91488208D02*
X162492664Y-93747208D01*
X162492664Y-93747208D02*
X162492664Y-94161208D01*
X162492664Y-94161208D02*
X162492664Y-95261208D01*
X127127000Y-109855000D02*
X128516999Y-108465001D01*
X128516999Y-108465001D02*
X128516999Y-106685591D01*
X128516999Y-106685591D02*
X133094590Y-102108000D01*
X133094590Y-102108000D02*
X146812000Y-102108000D01*
X161692664Y-95261208D02*
X161692664Y-94736208D01*
X161692664Y-94736208D02*
X157883456Y-90927000D01*
X157883456Y-90927000D02*
X157480000Y-90927000D01*
X172425664Y-97053208D02*
X171475664Y-97053208D01*
X171475664Y-97053208D02*
X171017664Y-97511208D01*
X171017664Y-97511208D02*
X169842664Y-97511208D01*
X169842664Y-97511208D02*
X168742664Y-97511208D01*
X168742664Y-96711208D02*
X168742664Y-96136208D01*
X168742664Y-96136208D02*
X170225664Y-94653208D01*
X170225664Y-94653208D02*
X171475664Y-94653208D01*
X171475664Y-94653208D02*
X172425664Y-94653208D01*
X131064000Y-89535000D02*
X128524000Y-86995000D01*
X128524000Y-86995000D02*
X128524000Y-86741000D01*
X103378000Y-85725000D02*
X107396001Y-89743001D01*
X101854000Y-85725000D02*
X103378000Y-85725000D01*
X107396001Y-89743001D02*
X107696000Y-90043000D01*
X153924000Y-106680000D02*
X154051000Y-106807000D01*
X154051000Y-106807000D02*
X155828002Y-106807000D01*
X157734000Y-104901002D02*
X157734000Y-99695000D01*
X155828002Y-106807000D02*
X157734000Y-104901002D01*
X157734000Y-99695000D02*
X159131000Y-98298000D01*
X159131000Y-98298000D02*
X160147000Y-98298000D01*
X158496000Y-101357872D02*
X158496000Y-104842919D01*
X158496000Y-104842919D02*
X159258000Y-105604919D01*
X159258000Y-105604919D02*
X159258000Y-106807000D01*
X160242664Y-100711208D02*
X159142663Y-100711209D01*
X159142663Y-100711209D02*
X158496000Y-101357872D01*
X171701208Y-78359000D02*
X170957207Y-77614999D01*
X170957207Y-77614999D02*
X159014003Y-77614999D01*
X159014003Y-77614999D02*
X155984002Y-80645000D01*
X155984002Y-80645000D02*
X153924000Y-80645000D01*
X153924000Y-80645000D02*
X153413999Y-81155001D01*
X153413999Y-81155001D02*
X152654000Y-81915000D01*
X172463208Y-79121000D02*
X171701208Y-78359000D01*
X171701208Y-78359000D02*
X170053000Y-80007208D01*
X170053000Y-80007208D02*
X170053000Y-83217000D01*
X173736000Y-79121000D02*
X172463208Y-79121000D01*
X119126000Y-106458000D02*
X108236000Y-106458000D01*
X108236000Y-106458000D02*
X102489000Y-100711000D01*
X122301000Y-108458000D02*
X122301000Y-109108000D01*
X122301000Y-109108000D02*
X124198001Y-111005001D01*
X124198001Y-111005001D02*
X131056999Y-111005001D01*
X131056999Y-111005001D02*
X131357001Y-110704999D01*
X131357001Y-110704999D02*
X132207000Y-109855000D01*
X119126000Y-108458000D02*
X120051000Y-108458000D01*
X120051000Y-108458000D02*
X122301000Y-108458000D01*
X132207000Y-109855000D02*
X133056999Y-110704999D01*
X133056999Y-110704999D02*
X162853001Y-110704999D01*
X162853001Y-110704999D02*
X164846000Y-108712000D01*
X110109000Y-100711000D02*
X110109000Y-97470000D01*
X197819033Y-97074967D02*
X181691439Y-97074967D01*
X181691439Y-97074967D02*
X173905176Y-104861230D01*
X202184000Y-92710000D02*
X197819033Y-97074967D01*
X166492664Y-104861208D02*
X166492664Y-103761208D01*
X173905176Y-104861230D02*
X166492686Y-104861230D01*
X166492686Y-104861230D02*
X166492664Y-104861208D01*
X174091576Y-105311241D02*
X166142697Y-105311241D01*
X204724000Y-92710000D02*
X199909022Y-97524978D01*
X165692664Y-104861208D02*
X165692664Y-103761208D01*
X166142697Y-105311241D02*
X165692664Y-104861208D01*
X181877839Y-97524978D02*
X174091576Y-105311241D01*
X199909022Y-97524978D02*
X181877839Y-97524978D01*
M02*
