M48
;DRILL file {KiCad 4.0.6} date 07/11/17 19:08:20
;FORMAT={-:-/ absolute / metric / decimal}
FMAT,2
METRIC,TZ
T1C0.400
T2C0.800
T3C0.910
T4C1.000
T5C2.690
%
G90
G05
M71
T1
X107.696Y-90.043
X128.524Y-86.741
X131.064Y-89.535
X133.731Y-103.505
X136.291Y-95.865
X137.414Y-103.632
X137.752Y-97.325
X146.812Y-102.108
X150.876Y-102.87
X152.654Y-102.235
X155.662Y-97.701
X157.48Y-90.927
X160.243Y-99.911
X163.293Y-103.761
X164.093Y-103.761
X164.846Y-108.712
X164.893Y-103.761
X165.693Y-103.761
X166.493Y-103.761
X168.741Y-102.335
X168.743Y-99.111
X168.783Y-101.473
X168.783Y-108.966
X170.053Y-85.217
X170.307Y-100.711
X172.426Y-95.853
X173.41Y-99.098
X181.737Y-85.185
T2
X118.972Y-82.974
X118.972Y-85.514
X118.972Y-88.054
X118.972Y-90.594
X118.972Y-93.134
X118.972Y-95.674
X118.972Y-98.214
X126.592Y-82.974
X126.592Y-85.514
X126.592Y-88.054
X126.592Y-90.594
X126.592Y-93.134
X126.592Y-95.674
X126.592Y-98.214
T3
X145.034Y-79.375
X145.034Y-81.915
X147.574Y-79.375
X147.574Y-81.915
X150.114Y-79.375
X150.114Y-81.915
X152.654Y-79.375
X152.654Y-81.915
X155.194Y-79.375
X155.194Y-81.915
T4
X102.Y-78.
X102.Y-80.54
X102.Y-83.08
X102.Y-85.62
X102.Y-88.16
X102.Y-90.7
X102.489Y-100.711
X105.029Y-100.711
X107.569Y-100.711
X110.109Y-100.711
X112.649Y-100.711
X115.189Y-100.711
X118.752Y-78.942
X121.292Y-78.942
X123.832Y-78.942
X126.372Y-78.942
X127.127Y-107.315
X127.127Y-109.855
X129.667Y-107.315
X129.667Y-109.855
X132.207Y-107.315
X132.207Y-109.855
X154.051Y-106.68
X154.051Y-109.22
X159.258Y-106.807
X159.258Y-109.347
X173.736Y-79.121
X176.276Y-79.121
X178.816Y-79.121
X186.563Y-84.074
X189.103Y-78.613
X189.103Y-84.074
X189.484Y-92.71
X189.484Y-105.41
X191.643Y-78.613
X191.643Y-84.074
X192.024Y-92.71
X192.024Y-105.41
X194.556Y-109.224
X194.564Y-92.71
X194.564Y-105.41
X197.096Y-109.224
X197.104Y-92.71
X197.104Y-105.41
X199.636Y-109.224
X199.644Y-83.947
X199.644Y-92.71
X199.644Y-105.41
X202.176Y-109.224
X202.184Y-78.74
X202.184Y-83.947
X202.184Y-92.71
X202.184Y-105.41
X204.724Y-78.74
X204.724Y-83.947
X204.724Y-92.71
X204.724Y-105.41
X207.264Y-92.71
X207.264Y-105.41
X212.Y-78.
X212.Y-80.54
X212.Y-83.08
X212.Y-85.62
X212.Y-88.16
X212.Y-90.7
T5
X136.144Y-80.645
X164.084Y-80.645
T0
M30
